<svg width="301" height="152" viewBox="0 0 301 152" fill="none" xmlns="http://www.w3.org/2000/svg">
<path d="M150.498 50.0364C128.832 50.0364 111.233 67.7615 111.233 89.5835C111.233 101.749 116.712 112.618 125.304 119.892C112.395 123.362 100.11 129.883 89.6503 139.54C78.6097 125.912 71.9688 108.521 71.9688 89.5835C71.9688 45.9814 107.207 10.4893 150.498 10.4893C193.788 10.4893 229.027 45.9814 229.027 89.5835C229.027 108.521 222.386 125.912 211.345 139.54C200.886 129.925 188.6 123.362 175.692 119.892C184.284 112.618 189.762 101.749 189.762 89.5835C189.762 67.7615 172.164 50.0364 150.498 50.0364Z" fill="white" fill-opacity="0.39"/>
<path d="M150.5 241.167C67.53 241.167 0 173.151 0 89.5833C0 6.01603 67.53 -62 150.5 -62C233.47 -62 301 6.01603 301 89.5833C301 173.151 233.47 241.167 150.5 241.167ZM150.5 -22.4529C89.1545 -22.4529 39.2646 27.7962 39.2646 89.5833C39.2646 151.37 89.1545 201.62 150.5 201.62C211.846 201.62 261.736 151.37 261.736 89.5833C261.736 27.7962 211.846 -22.4529 150.5 -22.4529Z" fill="white" fill-opacity="0.39"/>
</svg>
