<svg width="689" height="693" viewBox="0 0 689 693" fill="none" xmlns="http://www.w3.org/2000/svg">
<path d="M344.329 256.101C294.759 256.101 254.495 296.618 254.495 346.5C254.495 374.308 267.03 399.154 286.687 415.781C257.154 423.713 229.045 438.62 205.114 460.694C179.854 429.542 164.66 389.789 164.66 346.5C164.66 246.832 245.284 165.701 344.329 165.701C443.375 165.701 523.999 246.832 523.999 346.5C523.999 389.789 508.805 429.542 483.545 460.694C459.614 438.716 431.505 423.713 401.972 415.781C421.629 399.154 434.164 374.308 434.164 346.5C434.164 296.618 393.9 256.101 344.329 256.101Z" fill="#00AF57" fill-opacity="0.05"/>
<path d="M344.334 693C154.504 693 0 537.524 0 346.5C0 155.476 154.504 0 344.334 0C534.165 0 688.669 155.476 688.669 346.5C688.669 537.524 534.165 693 344.334 693ZM344.334 90.3996C203.98 90.3996 89.8348 205.263 89.8348 346.5C89.8348 487.737 203.98 602.6 344.334 602.6C484.689 602.6 598.834 487.737 598.834 346.5C598.834 205.263 484.689 90.3996 344.334 90.3996Z" fill="#00AF57" fill-opacity="0.05"/>
</svg>
